<svg width="168" height="29" viewBox="0 0 168 29" fill="none" xmlns="http://www.w3.org/2000/svg" role="img" aria-label="ВЕКТОР">
<defs>
<linearGradient id="g" x1="0" y1="29" x2="27" y2="0" gradientUnits="userSpaceOnUse">
<stop offset="0" stop-color="#3B82F6"/>
<stop offset="1" stop-color="#34D399"/>
</linearGradient>
</defs>
<path d="M7.49597 0H1.49164C0.797714 0 0.33956 0.721835 0.634941 1.34975L13.6419 28.9999L12.6121 17.6471L8.4149 0.718911C8.31019 0.296581 7.93109 0 7.49597 0Z" fill="url(#g)"/>
<path d="M20.6344 0H26.6387C27.3327 0 27.7908 0.721835 27.4954 1.34975L14.4884 28.9999L15.5183 17.6471L19.7155 0.718911C19.8202 0.296581 20.1993 0 20.6344 0Z" fill="url(#g)"/>
<path d="M54.6726 19.3672C54.6726 21.7891 52.6252 23 48.5303 23H36.2457C35.4809 23 35.0985 22.6893 35.0985 22.0679V7.3933C35.0985 6.7719 35.4809 6.4612 36.2457 6.4612H48.1479C52.3225 6.4612 54.4097 7.7757 54.4097 10.4047V11.767C54.4097 13.0098 53.7485 13.9578 52.426 14.6111C53.9238 15.2803 54.6726 16.308 54.6726 17.6942V19.3672ZM52.0914 17.5986C52.0914 16.2602 50.8725 15.591 48.4347 15.591H37.6797V20.8729C37.6797 20.9844 37.7435 21.0402 37.8709 21.0402H48.4347C50.8725 21.0402 52.0914 20.4108 52.0914 19.1521V17.5986ZM51.8524 10.4764C51.8524 9.10613 50.6256 8.421 48.1718 8.421H37.8709C37.7435 8.421 37.6797 8.47677 37.6797 8.5883V13.7507H48.363C50.6893 13.7507 51.8524 13.1054 51.8524 11.8148V10.4764ZM61.4531 15.591V20.8729C61.4531 20.9844 61.5168 21.0402 61.6443 21.0402H75.6258C76.4384 21.0402 76.8447 21.3668 76.8447 22.0201C76.8447 22.6734 76.4384 23 75.6258 23H60.043C59.2622 23 58.8719 22.7212 58.8719 22.1635V7.2977C58.8719 6.74003 59.2383 6.4612 59.9713 6.4612H69.1011C69.8977 6.4612 70.2961 6.78783 70.2961 7.4411C70.2961 8.09437 69.8977 8.421 69.1011 8.421H61.6443C61.5168 8.421 61.4531 8.4688 61.4531 8.5644V13.7268H75.6019C76.3826 13.7268 76.773 14.0375 76.773 14.6589C76.773 15.2803 76.3826 15.591 75.6019 15.591H61.4531ZM83.4993 16.0929V22.1157C83.4993 22.7849 83.0691 23.1195 82.2087 23.1195C81.3483 23.1195 80.9181 22.7849 80.9181 22.1157V7.3216C80.9181 6.66833 81.3483 6.3417 82.2087 6.3417C83.0691 6.3417 83.4993 6.66833 83.4993 7.3216V13.201L95.7361 6.6285C96.0866 6.4373 96.4212 6.3417 96.7399 6.3417C97.1223 6.3417 97.417 6.42933 97.6242 6.6046C97.8472 6.76393 97.9588 7.00293 97.9588 7.3216C97.9588 7.48093 97.911 7.64823 97.8154 7.8235C97.7357 7.98283 97.5684 8.12623 97.3135 8.2537L85.0528 14.5872L97.5525 21.1119C97.8552 21.2712 98.0544 21.4226 98.15 21.566C98.2615 21.7094 98.3173 21.8926 98.3173 22.1157C98.3173 22.4344 98.1978 22.6813 97.9588 22.8566C97.7357 23.0319 97.4091 23.1195 96.9789 23.1195C96.8514 23.1195 96.708 23.1036 96.5487 23.0717C96.3893 23.0398 96.1981 22.9522 95.9751 22.8088L83.4993 16.0929ZM108.883 8.421H102.359C101.562 8.421 101.164 8.09437 101.164 7.4411C101.164 6.78783 101.562 6.4612 102.359 6.4612H117.965C118.778 6.4612 119.184 6.77987 119.184 7.4172C119.184 8.0864 118.778 8.421 117.965 8.421H111.464V22.1157C111.464 22.7849 111.042 23.1195 110.198 23.1195C109.321 23.1195 108.883 22.7849 108.883 22.1157V8.421ZM138.7 11.0739C138.7 9.3053 137.25 8.421 134.35 8.421H129.116C126.216 8.421 124.766 9.3053 124.766 11.0739V18.3395C124.766 20.14 126.232 21.0402 129.163 21.0402H134.302C137.234 21.0402 138.7 20.14 138.7 18.3395V11.0739ZM129.187 23C124.519 23 122.185 21.4704 122.185 18.4112V11.0261C122.185 7.98283 124.479 6.4612 129.068 6.4612H134.398C138.986 6.4612 141.281 7.98283 141.281 11.0261V18.4112C141.281 21.4704 138.947 23 134.278 23H129.187ZM165.538 13.0576C165.538 16.1327 163.061 17.6703 158.105 17.6703H148.354V22.1157C148.354 22.7849 147.916 23.1195 147.04 23.1195C146.195 23.1195 145.773 22.7849 145.773 22.1157V7.2977C145.773 6.74003 146.139 6.4612 146.872 6.4612H158.105C163.061 6.4612 165.538 7.99877 165.538 11.0739V13.0576ZM148.354 15.7105H158.177C161.364 15.7105 162.957 14.8023 162.957 12.9859V11.1456C162.957 9.3292 161.372 8.421 158.201 8.421H148.545C148.418 8.421 148.354 8.47677 148.354 8.5883V15.7105Z" fill="#FFFFFF"/>
</svg>
